<svg width="119" height="24" viewBox="0 0 119 24" fill="none" xmlns="http://www.w3.org/2000/svg">
<path d="M8.32031 21.1953C7.25911 21.1953 6.2793 21.013 5.38086 20.6484C4.48893 20.2839 3.71094 19.7728 3.04688 19.1152C2.38932 18.4577 1.87826 17.6829 1.51367 16.791C1.1556 15.8926 0.976562 14.916 0.976562 13.8613C0.976562 12.8001 1.15885 11.8236 1.52344 10.9316C1.88802 10.0332 2.39909 9.25521 3.05664 8.59766C3.7207 7.9401 4.4987 7.42904 5.39062 7.06445C6.28906 6.69987 7.26562 6.51758 8.32031 6.51758C9.34245 6.51758 10.2962 6.70312 11.1816 7.07422C12.0736 7.4388 12.8548 7.95312 13.5254 8.61719C14.196 9.27474 14.7201 10.0495 15.0977 10.9414C15.4753 11.8333 15.6641 12.8066 15.6641 13.8613C15.6641 14.916 15.4818 15.8926 15.1172 16.791C14.7526 17.6829 14.2383 18.4577 13.5742 19.1152C12.9167 19.7728 12.1387 20.2839 11.2402 20.6484C10.3483 21.013 9.375 21.1953 8.32031 21.1953ZM8.63281 18.3242C7.31771 18.3242 6.32812 17.9206 5.66406 17.1133C5 16.2995 4.66797 15.2155 4.66797 13.8613C4.66797 12.9954 4.82422 12.2305 5.13672 11.5664C5.45573 10.8958 5.91471 10.3717 6.51367 9.99414C7.11914 9.61003 7.85156 9.41797 8.71094 9.41797C9.14062 9.41797 9.56706 9.47005 9.99023 9.57422C10.4134 9.67839 10.8105 9.82487 11.1816 10.0137L10.6348 11.1465C10.3092 10.9772 9.98698 10.8503 9.66797 10.7656C9.34896 10.6745 9.03646 10.6289 8.73047 10.6289C7.90365 10.6289 7.26237 10.9186 6.80664 11.498C6.35091 12.071 6.12305 12.8587 6.12305 13.8613C6.12305 14.903 6.32812 15.7038 6.73828 16.2637C7.15495 16.8236 7.80924 17.1035 8.70117 17.1035C9.02669 17.1035 9.375 17.0612 9.74609 16.9766C10.1237 16.8919 10.4818 16.7812 10.8203 16.6445V17.8359C10.5013 17.9792 10.1725 18.0964 9.83398 18.1875C9.49544 18.2786 9.09505 18.3242 8.63281 18.3242ZM8.32031 20.1992C9.1862 20.1992 9.99674 20.043 10.752 19.7305C11.5137 19.418 12.181 18.9785 12.7539 18.4121C13.3268 17.8392 13.776 17.1686 14.1016 16.4004C14.4271 15.6257 14.5898 14.7793 14.5898 13.8613C14.5898 12.9889 14.4336 12.1719 14.1211 11.4102C13.8151 10.6484 13.3822 9.97461 12.8223 9.38867C12.2624 8.80273 11.5983 8.34701 10.8301 8.02148C10.0684 7.68945 9.23177 7.52344 8.32031 7.52344C7.40885 7.52344 6.56901 7.67969 5.80078 7.99219C5.03906 8.30469 4.375 8.7474 3.80859 9.32031C3.2487 9.88672 2.8125 10.5573 2.5 11.332C2.19401 12.1003 2.04102 12.9434 2.04102 13.8613C2.04102 14.7337 2.19401 15.554 2.5 16.3223C2.80599 17.084 3.23893 17.7578 3.79883 18.3438C4.36523 18.9232 5.0293 19.3789 5.79102 19.7109C6.55924 20.0365 7.40234 20.1992 8.32031 20.1992ZM31.0651 22.184C30.8731 22.184 30.7345 21.9813 30.6491 21.576C30.6278 21.4267 30.5851 21.2133 30.5211 20.936C30.4785 20.6587 30.4251 20.3067 30.3611 19.88L30.3931 19.848C30.0091 17.8 29.4651 14.728 28.7611 10.632C28.6971 10.1627 28.6011 9.544 28.4731 8.776C28.3451 8.008 28.1958 7.10133 28.0251 6.056L27.5451 4.552C27.5238 4.296 27.4918 3.976 27.4491 3.592C27.4065 3.208 27.3531 2.76 27.2891 2.248H27.2251C27.2038 2.184 27.1931 2.088 27.1931 1.96C27.1931 1.68267 27.2571 1.45867 27.3851 1.288C27.5131 1.11733 27.6518 1.032 27.8011 1.032C28.0145 1.032 28.1425 1.18133 28.1851 1.48H28.2171C28.2598 1.736 28.3451 2.19467 28.4731 2.856C28.6225 3.51733 28.8038 4.38133 29.0171 5.448L29.7851 10.088C29.8918 10.6427 30.0198 11.3893 30.1691 12.328C30.3185 13.2667 30.4998 14.3973 30.7131 15.72C30.7771 16.2107 30.8625 16.7653 30.9691 17.384C31.0971 18.0027 31.2358 18.6853 31.3851 19.432V19.72C31.5345 19.5493 31.6518 19.2933 31.7371 18.952C31.9078 18.6747 32.1531 18.2693 32.4731 17.736C32.7931 17.1813 33.1345 16.5413 33.4971 15.816C33.8811 15.0907 34.2225 14.344 34.5211 13.576C34.6705 13.1493 34.8625 12.5947 35.0971 11.912C35.3318 11.208 35.6198 10.3973 35.9611 9.48L37.6571 5.96C37.9345 5.42667 38.2651 4.76533 38.6491 3.976C39.0331 3.18667 39.4918 2.25867 40.0251 1.192C40.1531 0.893333 40.3131 0.743999 40.5051 0.743999C40.8038 0.743999 40.9531 0.978666 40.9531 1.448C40.9531 1.64 40.9105 1.82133 40.8251 1.992L40.0251 3.72C39.8758 4.06133 39.6731 4.49867 39.4171 5.032C39.1611 5.544 38.8518 6.14133 38.4891 6.824C38.2118 7.35733 37.9451 7.90133 37.6891 8.456C37.4545 8.98933 37.2198 9.55467 36.9851 10.152C36.6011 11.2613 36.0891 12.6373 35.4491 14.28C35.3211 14.5787 35.1078 15.0267 34.8091 15.624C34.5318 16.2213 34.1691 16.968 33.7211 17.864C33.2091 18.7173 32.4731 20.0293 31.5131 21.8C31.3851 22.056 31.2358 22.184 31.0651 22.184ZM40.8851 10.408C40.5651 10.408 40.4158 10.216 40.4371 9.832L40.7571 8.616C40.8211 8.38133 40.9705 8.264 41.2051 8.264C41.6958 8.264 41.8985 8.46667 41.8131 8.872C41.7918 9.17067 41.7171 9.50133 41.5891 9.864C41.4611 10.2267 41.2265 10.408 40.8851 10.408ZM39.7651 20.488C39.5731 20.488 39.4451 20.4027 39.3811 20.232C39.2958 19.9973 39.2425 19.7093 39.2211 19.368C39.1998 19.0267 39.1998 18.6427 39.2211 18.216C39.2638 17.7253 39.3811 17.1067 39.5731 16.36C39.7865 15.6133 40.0745 14.7493 40.4371 13.768C40.5225 13.5547 40.6718 13.448 40.8851 13.448C41.2905 13.448 41.4291 13.6293 41.3011 13.992C41.2158 14.2693 41.1411 14.5467 41.0771 14.824C41.0131 15.1013 40.9491 15.3787 40.8851 15.656C40.7785 16.1467 40.6931 16.584 40.6291 16.968C40.5651 17.352 40.5331 17.6933 40.5331 17.992C40.5331 19.0373 40.5438 19.5813 40.5651 19.624C40.6291 19.8373 40.5651 20.04 40.3731 20.232C40.1811 20.4027 39.9785 20.488 39.7651 20.488ZM45.5214 21.48C44.8387 21.48 44.2627 21.2133 43.7934 20.68C43.3667 20.1893 43.1534 19.6347 43.1534 19.016C43.1534 17.864 43.676 16.6373 44.7214 15.336C45.148 14.7813 45.6067 14.2907 46.0974 13.864C46.588 13.4373 47.1 13.0533 47.6334 12.712C47.74 12.648 47.8894 12.616 48.0814 12.616C48.7 12.616 49.0094 12.7653 49.0094 13.064C49.0094 13.1493 48.9454 13.2453 48.8174 13.352V13.384C49.1374 13.832 49.4574 14.3013 49.7774 14.792C50.0974 15.2827 50.2574 15.8587 50.2574 16.52C50.2574 17.0747 50.108 17.64 49.8094 18.216C49.532 18.792 49.148 19.336 48.6574 19.848C48.188 20.3387 47.676 20.7333 47.1214 21.032C46.5667 21.3307 46.0334 21.48 45.5214 21.48ZM45.5534 20.488C46.0867 20.4667 46.652 20.2533 47.2494 19.848C47.8467 19.4213 48.3587 18.9093 48.7854 18.312C49.2334 17.7147 49.468 17.1493 49.4894 16.616C49.532 15.784 49.1054 14.8453 48.2094 13.8C47.292 14.4613 46.4814 15.24 45.7774 16.136C44.9454 17.224 44.5294 18.2053 44.5294 19.08C44.5294 20.0187 44.8707 20.488 45.5534 20.488ZM53.6739 23.176C52.9485 23.1973 52.3725 22.6747 51.9459 21.608C51.5405 20.5413 51.3379 18.9413 51.3379 16.808C51.3379 15.592 51.4339 14.2373 51.6259 12.744C51.8392 11.2293 52.1485 9.56533 52.5539 7.752C53.5992 2.93067 54.8579 0.519999 56.3299 0.519999C56.9059 0.519999 57.3219 1.04267 57.5779 2.088C57.7699 2.87733 57.8339 3.592 57.7699 4.232C57.5565 6.30133 56.3299 9.13867 54.0899 12.744C53.9405 12.9147 53.7592 13.1387 53.5459 13.416C53.3539 13.6933 53.1192 14.024 52.8419 14.408C52.7992 14.8987 52.7565 15.3787 52.7139 15.848C52.6925 16.3173 52.6819 16.7653 52.6819 17.192C52.6819 17.96 52.7459 18.7493 52.8739 19.56C53.1085 20.8187 53.4605 21.448 53.9299 21.448C54.3779 21.448 54.8259 21.16 55.2739 20.584L56.2019 19.08C56.3085 18.9093 56.4472 18.824 56.6179 18.824C56.8312 18.824 56.9379 18.9307 56.9379 19.144C56.9379 19.1867 56.9272 19.2293 56.9059 19.272C56.9059 19.3147 56.8952 19.3573 56.8739 19.4C56.6392 19.9333 56.4259 20.392 56.2339 20.776C56.0632 21.1387 55.9032 21.4267 55.7539 21.64C55.0925 22.664 54.3992 23.176 53.6739 23.176ZM56.2979 2.12C54.8259 2.76 53.7272 6.28 53.0019 12.68C53.0659 12.616 53.1619 12.488 53.2899 12.296C55.6579 8.92533 56.8419 6.23733 56.8419 4.232C56.8419 4.08267 56.8312 3.92267 56.8099 3.752C56.7885 3.56 56.7565 3.34667 56.7139 3.112C56.5859 2.536 56.4472 2.20533 56.2979 2.12ZM60.5469 21.672C59.6082 21.672 58.8402 21.384 58.2429 20.808C57.6669 20.232 57.3789 19.4533 57.3789 18.472C57.3789 18.2587 57.3895 18.0453 57.4109 17.832C57.4535 17.6187 57.4962 17.4053 57.5389 17.192C57.7735 16.2747 58.4242 15.2933 59.4909 14.248C60.6855 13.1173 61.7202 12.552 62.5949 12.552C63.3202 12.552 63.6615 12.9573 63.6189 13.768C63.5975 14.8133 63.0215 15.8373 61.8909 16.84C61.4002 17.2453 60.8882 17.6187 60.3549 17.96C59.8429 18.3013 59.2989 18.472 58.7229 18.472H58.6909C58.7549 19.8587 59.4695 20.552 60.8349 20.552C61.2829 20.552 61.7842 20.4453 62.3389 20.232C62.3815 20.2107 62.4455 20.2 62.5309 20.2C62.8082 20.2 62.9469 20.3387 62.9469 20.616C62.9469 20.808 62.8509 20.9573 62.6589 21.064C62.0615 21.4693 61.3575 21.672 60.5469 21.672ZM59.5549 16.968C60.2162 16.8187 60.7815 16.5413 61.2509 16.136C62.0829 15.432 62.4989 14.76 62.4989 14.12V14.056C62.4989 13.9067 62.4455 13.7893 62.3389 13.704C62.2322 13.6187 62.1575 13.5973 62.1149 13.64C61.4535 13.64 60.7495 14.12 60.0029 15.08C59.8962 15.2293 59.7682 15.432 59.6189 15.688C59.4695 15.9227 59.3095 16.2107 59.1389 16.552C59.1175 16.5947 59.1069 16.6373 59.1069 16.68C59.1069 16.872 59.2562 16.968 59.5549 16.968ZM67.0861 22.92C66.5528 22.92 66.2861 22.6 66.2861 21.96C66.2861 18.7813 66.5101 15.4 66.9581 11.816C66.7448 11.7733 66.5208 11.7413 66.2861 11.72C66.0728 11.6773 65.8595 11.6347 65.6461 11.592C65.0488 11.5067 64.7501 11.336 64.7501 11.08C64.7501 10.824 64.8781 10.664 65.1341 10.6H65.1021C64.9101 10.6 64.9421 10.5893 65.1981 10.568C65.4541 10.5253 65.7848 10.4827 66.1901 10.44C66.5955 10.3973 66.9155 10.376 67.1501 10.376C67.2781 9.62933 67.5341 8.744 67.9181 7.72C68.1315 7.10133 68.3021 6.568 68.4301 6.12C68.5795 5.65067 68.6968 5.27733 68.7821 5C68.8888 4.57333 69.1661 4.36 69.6141 4.36C69.8061 4.36 69.8808 4.456 69.8381 4.648C69.6675 5.24533 69.4541 6.024 69.1981 6.984C68.9421 7.92267 68.6648 9.04267 68.3661 10.344C68.5581 10.344 68.7928 10.344 69.0701 10.344C69.3688 10.344 69.7101 10.3547 70.0941 10.376C70.4781 10.3973 70.8088 10.4187 71.0861 10.44C71.3848 10.44 71.6195 10.44 71.7901 10.44C71.9821 10.44 72.0781 10.5147 72.0781 10.664C72.0781 10.792 71.9928 10.9307 71.8221 11.08C71.6728 11.2293 71.5021 11.304 71.3101 11.304C71.0541 11.304 70.6701 11.3467 70.1581 11.432C69.6461 11.496 68.9955 11.6027 68.2061 11.752C67.8861 14.376 67.7261 17.9387 67.7261 22.44C67.7261 22.76 67.5128 22.92 67.0861 22.92ZM79.9924 22.92C79.459 22.92 79.1924 22.6 79.1924 21.96C79.1924 18.7813 79.4164 15.4 79.8644 11.816C79.651 11.7733 79.427 11.7413 79.1924 11.72C78.979 11.6773 78.7657 11.6347 78.5524 11.592C77.955 11.5067 77.6564 11.336 77.6564 11.08C77.6564 10.824 77.7844 10.664 78.0404 10.6H78.0084C77.8164 10.6 77.8484 10.5893 78.1044 10.568C78.3604 10.5253 78.691 10.4827 79.0964 10.44C79.5017 10.3973 79.8217 10.376 80.0564 10.376C80.1844 9.62933 80.4404 8.744 80.8244 7.72C81.0377 7.10133 81.2084 6.568 81.3364 6.12C81.4857 5.65067 81.603 5.27733 81.6884 5C81.795 4.57333 82.0724 4.36 82.5204 4.36C82.7124 4.36 82.787 4.456 82.7444 4.648C82.5737 5.24533 82.3604 6.024 82.1044 6.984C81.8484 7.92267 81.571 9.04267 81.2724 10.344C81.4644 10.344 81.699 10.344 81.9764 10.344C82.275 10.344 82.6164 10.3547 83.0004 10.376C83.3844 10.3973 83.715 10.4187 83.9924 10.44C84.291 10.44 84.5257 10.44 84.6964 10.44C84.8884 10.44 84.9844 10.5147 84.9844 10.664C84.9844 10.792 84.899 10.9307 84.7284 11.08C84.579 11.2293 84.4084 11.304 84.2164 11.304C83.9604 11.304 83.5764 11.3467 83.0644 11.432C82.5524 11.496 81.9017 11.6027 81.1124 11.752C80.7924 14.376 80.6324 17.9387 80.6324 22.44C80.6324 22.76 80.419 22.92 79.9924 22.92ZM88.4531 21.672C87.5145 21.672 86.7465 21.384 86.1491 20.808C85.5731 20.232 85.2851 19.4533 85.2851 18.472C85.2851 18.2587 85.2958 18.0453 85.3171 17.832C85.3598 17.6187 85.4025 17.4053 85.4451 17.192C85.6798 16.2747 86.3305 15.2933 87.3971 14.248C88.5918 13.1173 89.6265 12.552 90.5011 12.552C91.2265 12.552 91.5678 12.9573 91.5251 13.768C91.5038 14.8133 90.9278 15.8373 89.7971 16.84C89.3065 17.2453 88.7945 17.6187 88.2611 17.96C87.7491 18.3013 87.2051 18.472 86.6291 18.472H86.5971C86.6611 19.8587 87.3758 20.552 88.7411 20.552C89.1891 20.552 89.6905 20.4453 90.2451 20.232C90.2878 20.2107 90.3518 20.2 90.4371 20.2C90.7145 20.2 90.8531 20.3387 90.8531 20.616C90.8531 20.808 90.7571 20.9573 90.5651 21.064C89.9678 21.4693 89.2638 21.672 88.4531 21.672ZM87.4611 16.968C88.1225 16.8187 88.6878 16.5413 89.1571 16.136C89.9891 15.432 90.4051 14.76 90.4051 14.12V14.056C90.4051 13.9067 90.3518 13.7893 90.2451 13.704C90.1385 13.6187 90.0638 13.5973 90.0211 13.64C89.3598 13.64 88.6558 14.12 87.9091 15.08C87.8025 15.2293 87.6745 15.432 87.5251 15.688C87.3758 15.9227 87.2158 16.2107 87.0451 16.552C87.0238 16.5947 87.0131 16.6373 87.0131 16.68C87.0131 16.872 87.1625 16.968 87.4611 16.968ZM101.008 21.384C100.902 21.384 100.806 21.3413 100.72 21.256C100.144 20.6587 99.8457 19.784 99.8244 18.632C99.8244 18.5467 99.835 18.4507 99.8564 18.344C99.8777 18.216 99.8884 18.0773 99.8884 17.928L99.9204 17.256V17.16C99.9204 16.776 99.7817 16.6373 99.5044 16.744C99.0777 17.0427 98.5017 17.48 97.7764 18.056C97.0724 18.6107 96.219 19.2933 95.2164 20.104C94.7897 20.5093 94.2457 20.712 93.5844 20.712C93.2004 20.712 92.8697 20.5093 92.5924 20.104C92.3364 19.6773 92.2404 19.272 92.3044 18.888C92.3684 18.3333 92.5924 17.736 92.9764 17.096C93.3604 16.4347 93.8297 15.784 94.3844 15.144C94.9604 14.4827 95.5684 13.9067 96.2084 13.416C96.8697 12.904 97.499 12.5413 98.0964 12.328C98.331 12.2427 98.555 12.1787 98.7684 12.136C98.9817 12.0933 99.195 12.072 99.4084 12.072C100.326 12.072 100.784 12.392 100.784 13.032C100.784 13.2453 100.699 13.352 100.528 13.352C100.464 13.352 100.4 13.352 100.336 13.352C100.272 13.3307 100.208 13.2987 100.144 13.256C99.7604 12.936 99.4084 12.776 99.0884 12.776C98.7684 12.776 98.299 12.968 97.6804 13.352C97.1897 13.6507 96.7097 14.024 96.2404 14.472C95.771 14.92 95.323 15.4213 94.8964 15.976C94.491 16.5093 94.171 16.9893 93.9364 17.416C93.7017 17.8213 93.563 18.184 93.5204 18.504C93.499 18.5893 93.4884 18.696 93.4884 18.824C93.4884 19.1653 93.627 19.336 93.9044 19.336C94.2457 19.336 94.8857 19.0267 95.8244 18.408C98.0644 16.9147 99.6217 15.592 100.496 14.44C100.71 14.1627 100.902 13.7893 101.072 13.32C101.179 13.0213 101.403 12.872 101.744 12.872C102.128 12.872 102.32 13.0853 102.32 13.512C102.32 13.8533 102.16 14.28 101.84 14.792C101.328 16.3493 101.072 17.4267 101.072 18.024C101.115 18.9413 101.339 19.6773 101.744 20.232C101.808 20.296 101.84 20.3813 101.84 20.488C101.84 20.68 101.744 20.872 101.552 21.064C101.36 21.2773 101.179 21.384 101.008 21.384ZM104.758 21.128C104.352 21.128 104.15 20.9253 104.15 20.52C104.171 19.624 104.267 18.5467 104.438 17.288C104.544 16.4773 104.64 15.7947 104.726 15.24C104.811 14.6853 104.864 14.2693 104.886 13.992C104.928 13.6933 105.078 13.544 105.334 13.544C105.568 13.544 105.686 13.6827 105.686 13.96C105.686 14.728 105.686 15.3573 105.686 15.848C105.686 16.3173 105.675 16.648 105.654 16.84V16.904C105.654 17.1173 105.739 17.224 105.91 17.224C105.995 17.224 106.08 17.16 106.166 17.032C106.934 15.8373 107.766 15.24 108.662 15.24C109.067 15.24 109.366 15.5173 109.558 16.072C109.6 16.1787 109.654 16.3813 109.718 16.68C109.803 16.9573 109.888 17.3307 109.974 17.8C110.038 18.0773 110.176 18.216 110.39 18.216C110.518 18.216 110.688 18.1413 110.902 17.992C111.008 17.928 111.168 17.8107 111.382 17.64C111.616 17.4693 111.904 17.2453 112.246 16.968C113.696 15.8373 114.571 15.272 114.87 15.272C115.382 15.272 115.776 16.072 116.054 17.672C116.31 19.0373 116.587 19.72 116.886 19.72C116.971 19.72 117.152 19.752 117.43 19.816C117.686 19.8373 117.846 19.8373 117.91 19.816C117.952 19.7947 117.995 19.784 118.038 19.784C118.08 19.7627 118.123 19.752 118.166 19.752C118.443 19.752 118.582 19.88 118.582 20.136C118.582 20.4347 118.347 20.68 117.878 20.872C117.536 21.0213 117.11 21.064 116.598 21C116.107 21 115.702 20.6693 115.382 20.008C115.254 19.7093 115.062 19.0907 114.806 18.152C114.635 17.4693 114.454 17.128 114.262 17.128C114.006 17.128 113.632 17.2667 113.142 17.544C112.651 17.8213 112.16 18.1413 111.67 18.504C111.179 18.8667 110.784 19.208 110.486 19.528C110.4 19.6347 110.24 19.688 110.006 19.688C109.536 19.688 109.27 19.5813 109.206 19.368C108.8 17.8107 108.459 17.032 108.182 17.032C107.478 17.032 106.848 17.48 106.294 18.376C106.144 18.6107 105.995 18.92 105.846 19.304C105.696 19.688 105.536 20.1573 105.366 20.712C105.28 20.9253 105.206 21.0107 105.142 20.968C105.035 21.0747 104.907 21.128 104.758 21.128Z" fill="black"/>
</svg>
